<mxfile host="Electron" agent="Mozilla/5.0 (Windows NT 10.0; Win64; x64) AppleWebKit/537.36 (KHTML, like Gecko) draw.io/27.0.5 Chrome/134.0.6998.205 Electron/35.3.0 Safari/537.36" version="27.0.5">
  <diagram name="Learning Flow Sequence" id="learning-flow-sequence">
    <mxGraphModel dx="856" dy="561" grid="1" gridSize="10" guides="1" tooltips="1" connect="1" arrows="1" fold="1" page="1" pageScale="1" pageWidth="1169" pageHeight="1600" math="0" shadow="0">
      <root>
        <mxCell id="0" />
        <mxCell id="1" parent="0" />
        <mxCell id="actor-user" value="" style="shape=umlLifeline;perimeter=lifelinePerimeter;whiteSpace=wrap;html=1;container=1;dropTarget=0;collapsible=0;recursiveResize=0;outlineConnect=0;portConstraint=eastwest;newEdgeStyle={&quot;curved&quot;:0,&quot;rounded&quot;:0};participant=umlActor;" parent="1" vertex="1">
          <mxGeometry x="120" y="40" width="30" height="1050" as="geometry" />
        </mxCell>
        <mxCell id="actor-user-activation" value="" style="html=1;points=[[0,0,0,0,5],[0,1,0,0,-5],[1,0,0,0,5],[1,1,0,0,-5]];perimeter=orthogonalPerimeter;outlineConnect=0;targetShapes=umlLifeline;portConstraint=eastwest;newEdgeStyle={&quot;curved&quot;:0,&quot;rounded&quot;:0};" parent="actor-user" vertex="1">
          <mxGeometry x="10" y="40" width="10" height="960" as="geometry" />
        </mxCell>
        <mxCell id="mobile-app" value="Mobile&lt;div&gt;App&lt;/div&gt;" style="shape=umlLifeline;perimeter=lifelinePerimeter;whiteSpace=wrap;html=1;container=1;dropTarget=0;collapsible=0;recursiveResize=0;outlineConnect=0;portConstraint=eastwest;newEdgeStyle={&quot;curved&quot;:0,&quot;rounded&quot;:0};" parent="1" vertex="1">
          <mxGeometry x="280" y="40" width="100" height="1050" as="geometry" />
        </mxCell>
        <mxCell id="mobile-app-activation" value="" style="html=1;points=[[0,0,0,0,5],[0,1,0,0,-5],[1,0,0,0,5],[1,1,0,0,-5]];perimeter=orthogonalPerimeter;outlineConnect=0;targetShapes=umlLifeline;portConstraint=eastwest;newEdgeStyle={&quot;curved&quot;:0,&quot;rounded&quot;:0};" parent="mobile-app" vertex="1">
          <mxGeometry x="45" y="50" width="10" height="950" as="geometry" />
        </mxCell>
        <mxCell id="learning-service" value="Learning&lt;div&gt;Service&lt;/div&gt;" style="shape=umlLifeline;perimeter=lifelinePerimeter;whiteSpace=wrap;html=1;container=1;dropTarget=0;collapsible=0;recursiveResize=0;outlineConnect=0;portConstraint=eastwest;newEdgeStyle={&quot;curved&quot;:0,&quot;rounded&quot;:0};" parent="1" vertex="1">
          <mxGeometry x="480" y="40" width="100" height="1050" as="geometry" />
        </mxCell>
        <mxCell id="learning-service-activation" value="" style="html=1;points=[[0,0,0,0,5],[0,1,0,0,-5],[1,0,0,0,5],[1,1,0,0,-5]];perimeter=orthogonalPerimeter;outlineConnect=0;targetShapes=umlLifeline;portConstraint=eastwest;newEdgeStyle={&quot;curved&quot;:0,&quot;rounded&quot;:0};" parent="learning-service" vertex="1">
          <mxGeometry x="45" y="90" width="10" height="860" as="geometry" />
        </mxCell>
        <mxCell id="database" value="Database" style="shape=umlLifeline;perimeter=lifelinePerimeter;whiteSpace=wrap;html=1;container=1;dropTarget=0;collapsible=0;recursiveResize=0;outlineConnect=0;portConstraint=eastwest;newEdgeStyle={&quot;curved&quot;:0,&quot;rounded&quot;:0};" parent="1" vertex="1">
          <mxGeometry x="680" y="40" width="100" height="1050" as="geometry" />
        </mxCell>
        <mxCell id="database-activation-1" value="" style="html=1;points=[[0,0,0,0,5],[0,1,0,0,-5],[1,0,0,0,5],[1,1,0,0,-5]];perimeter=orthogonalPerimeter;outlineConnect=0;targetShapes=umlLifeline;portConstraint=eastwest;newEdgeStyle={&quot;curved&quot;:0,&quot;rounded&quot;:0};" parent="database" vertex="1">
          <mxGeometry x="45" y="140" width="10" height="60" as="geometry" />
        </mxCell>
        <mxCell id="database-activation-2" value="" style="html=1;points=[[0,0,0,0,5],[0,1,0,0,-5],[1,0,0,0,5],[1,1,0,0,-5]];perimeter=orthogonalPerimeter;outlineConnect=0;targetShapes=umlLifeline;portConstraint=eastwest;newEdgeStyle={&quot;curved&quot;:0,&quot;rounded&quot;:0};" parent="database" vertex="1">
          <mxGeometry x="45" y="350" width="10" height="60" as="geometry" />
        </mxCell>
        <mxCell id="database-activation-3" value="" style="html=1;points=[[0,0,0,0,5],[0,1,0,0,-5],[1,0,0,0,5],[1,1,0,0,-5]];perimeter=orthogonalPerimeter;outlineConnect=0;targetShapes=umlLifeline;portConstraint=eastwest;newEdgeStyle={&quot;curved&quot;:0,&quot;rounded&quot;:0};" parent="database" vertex="1">
          <mxGeometry x="45" y="590" width="10" height="60" as="geometry" />
        </mxCell>
        <mxCell id="database-activation-4" value="" style="html=1;points=[[0,0,0,0,5],[0,1,0,0,-5],[1,0,0,0,5],[1,1,0,0,-5]];perimeter=orthogonalPerimeter;outlineConnect=0;targetShapes=umlLifeline;portConstraint=eastwest;newEdgeStyle={&quot;curved&quot;:0,&quot;rounded&quot;:0};" parent="database" vertex="1">
          <mxGeometry x="45" y="790" width="10" height="60" as="geometry" />
        </mxCell>
        <mxCell id="progress-tracker" value="Progress&lt;div&gt;Tracker&lt;/div&gt;" style="shape=umlLifeline;perimeter=lifelinePerimeter;whiteSpace=wrap;html=1;container=1;dropTarget=0;collapsible=0;recursiveResize=0;outlineConnect=0;portConstraint=eastwest;newEdgeStyle={&quot;curved&quot;:0,&quot;rounded&quot;:0};" parent="1" vertex="1">
          <mxGeometry x="880" y="40" width="100" height="1050" as="geometry" />
        </mxCell>
        <mxCell id="progress-tracker-activation" value="" style="html=1;points=[[0,0,0,0,5],[0,1,0,0,-5],[1,0,0,0,5],[1,1,0,0,-5]];perimeter=orthogonalPerimeter;outlineConnect=0;targetShapes=umlLifeline;portConstraint=eastwest;newEdgeStyle={&quot;curved&quot;:0,&quot;rounded&quot;:0};" parent="progress-tracker" vertex="1">
          <mxGeometry x="45" y="700" width="10" height="190" as="geometry" />
        </mxCell>
        <mxCell id="msg-request-categories" value="" style="endArrow=block;startArrow=none;endFill=1;startFill=0;endSize=8;html=1;verticalAlign=bottom;labelBackgroundColor=none;strokeWidth=1;rounded=0;" parent="1" edge="1">
          <mxGeometry width="160" relative="1" as="geometry">
            <mxPoint x="140" y="100" as="sourcePoint" />
            <mxPoint x="325" y="100" as="targetPoint" />
          </mxGeometry>
        </mxCell>
        <mxCell id="msg-request-categories-label" value="Browse Learning Categories" style="edgeLabel;html=1;align=center;verticalAlign=middle;resizable=0;points=[];" parent="msg-request-categories" vertex="1" connectable="0">
          <mxGeometry x="-0.2381" y="3" relative="1" as="geometry">
            <mxPoint x="23" as="offset" />
          </mxGeometry>
        </mxCell>
        <mxCell id="msg-load-categories" value="" style="endArrow=block;startArrow=none;endFill=1;startFill=0;endSize=8;html=1;verticalAlign=bottom;labelBackgroundColor=none;strokeWidth=1;rounded=0;" parent="1" edge="1">
          <mxGeometry width="160" relative="1" as="geometry">
            <mxPoint x="335" y="130" as="sourcePoint" />
            <mxPoint x="525" y="130" as="targetPoint" />
          </mxGeometry>
        </mxCell>
        <mxCell id="msg-load-categories-label" value="Request Categories" style="edgeLabel;html=1;align=center;verticalAlign=middle;resizable=0;points=[];" parent="msg-load-categories" vertex="1" connectable="0">
          <mxGeometry x="-0.2381" y="3" relative="1" as="geometry">
            <mxPoint x="23" as="offset" />
          </mxGeometry>
        </mxCell>
        <mxCell id="msg-fetch-categories" value="" style="endArrow=block;startArrow=none;endFill=1;startFill=0;endSize=8;html=1;verticalAlign=bottom;labelBackgroundColor=none;strokeWidth=1;rounded=0;" parent="1" edge="1">
          <mxGeometry width="160" relative="1" as="geometry">
            <mxPoint x="535" y="150" as="sourcePoint" />
            <mxPoint x="725" y="150" as="targetPoint" />
          </mxGeometry>
        </mxCell>
        <mxCell id="msg-fetch-categories-label" value="Fetch Categories" style="edgeLabel;html=1;align=center;verticalAlign=middle;resizable=0;points=[];" parent="msg-fetch-categories" vertex="1" connectable="0">
          <mxGeometry x="-0.2381" y="3" relative="1" as="geometry">
            <mxPoint x="23" as="offset" />
          </mxGeometry>
        </mxCell>
        <mxCell id="msg-return-categories" value="" style="html=1;verticalAlign=bottom;endArrow=open;dashed=1;endSize=8;curved=0;rounded=0;" parent="1" edge="1">
          <mxGeometry relative="1" as="geometry">
            <mxPoint x="725" y="190" as="sourcePoint" />
            <mxPoint x="535" y="190" as="targetPoint" />
          </mxGeometry>
        </mxCell>
        <mxCell id="msg-return-categories-label" value="Return Categories" style="edgeLabel;html=1;align=center;verticalAlign=middle;resizable=0;points=[];" parent="msg-return-categories" vertex="1" connectable="0">
          <mxGeometry x="0.1895" y="-1" relative="1" as="geometry">
            <mxPoint x="13" y="1" as="offset" />
          </mxGeometry>
        </mxCell>
        <mxCell id="msg-display-categories" value="" style="html=1;verticalAlign=bottom;endArrow=open;dashed=1;endSize=8;curved=0;rounded=0;" parent="1" edge="1">
          <mxGeometry relative="1" as="geometry">
            <mxPoint x="525" y="210" as="sourcePoint" />
            <mxPoint x="335" y="210" as="targetPoint" />
          </mxGeometry>
        </mxCell>
        <mxCell id="msg-display-categories-label" value="Categories List" style="edgeLabel;html=1;align=center;verticalAlign=middle;resizable=0;points=[];" parent="msg-display-categories" vertex="1" connectable="0">
          <mxGeometry x="0.1895" y="-1" relative="1" as="geometry">
            <mxPoint x="13" y="1" as="offset" />
          </mxGeometry>
        </mxCell>
        <mxCell id="msg-show-categories" value="" style="html=1;verticalAlign=bottom;endArrow=open;dashed=1;endSize=8;curved=0;rounded=0;" parent="1" edge="1">
          <mxGeometry relative="1" as="geometry">
            <mxPoint x="325" y="230" as="sourcePoint" />
            <mxPoint x="140" y="230" as="targetPoint" />
          </mxGeometry>
        </mxCell>
        <mxCell id="msg-show-categories-label" value="Display Categories" style="edgeLabel;html=1;align=center;verticalAlign=middle;resizable=0;points=[];" parent="msg-show-categories" vertex="1" connectable="0">
          <mxGeometry x="0.1895" y="-1" relative="1" as="geometry">
            <mxPoint x="13" y="1" as="offset" />
          </mxGeometry>
        </mxCell>
        <mxCell id="msg-select-category" value="" style="endArrow=block;startArrow=none;endFill=1;startFill=0;endSize=8;html=1;verticalAlign=bottom;labelBackgroundColor=none;strokeWidth=1;rounded=0;" parent="1" edge="1">
          <mxGeometry width="160" relative="1" as="geometry">
            <mxPoint x="140" y="260" as="sourcePoint" />
            <mxPoint x="325" y="260" as="targetPoint" />
          </mxGeometry>
        </mxCell>
        <mxCell id="msg-select-category-label" value="Select Category" style="edgeLabel;html=1;align=center;verticalAlign=middle;resizable=0;points=[];" parent="msg-select-category" vertex="1" connectable="0">
          <mxGeometry x="-0.2381" y="3" relative="1" as="geometry">
            <mxPoint x="23" as="offset" />
          </mxGeometry>
        </mxCell>
        <mxCell id="msg-select-difficulty" value="" style="endArrow=block;startArrow=none;endFill=1;startFill=0;endSize=8;html=1;verticalAlign=bottom;labelBackgroundColor=none;strokeWidth=1;rounded=0;" parent="1" edge="1">
          <mxGeometry width="160" relative="1" as="geometry">
            <mxPoint x="140" y="290" as="sourcePoint" />
            <mxPoint x="325" y="290" as="targetPoint" />
          </mxGeometry>
        </mxCell>
        <mxCell id="msg-select-difficulty-label" value="Choose Difficulty" style="edgeLabel;html=1;align=center;verticalAlign=middle;resizable=0;points=[];" parent="msg-select-difficulty" vertex="1" connectable="0">
          <mxGeometry x="-0.2381" y="3" relative="1" as="geometry">
            <mxPoint x="23" as="offset" />
          </mxGeometry>
        </mxCell>
        <mxCell id="msg-request-content" value="" style="endArrow=block;startArrow=none;endFill=1;startFill=0;endSize=8;html=1;verticalAlign=bottom;labelBackgroundColor=none;strokeWidth=1;rounded=0;" parent="1" edge="1">
          <mxGeometry width="160" relative="1" as="geometry">
            <mxPoint x="335" y="320" as="sourcePoint" />
            <mxPoint x="525" y="320" as="targetPoint" />
          </mxGeometry>
        </mxCell>
        <mxCell id="msg-request-content-label" value="Request Learning Content" style="edgeLabel;html=1;align=center;verticalAlign=middle;resizable=0;points=[];" parent="msg-request-content" vertex="1" connectable="0">
          <mxGeometry x="-0.2381" y="3" relative="1" as="geometry">
            <mxPoint x="23" as="offset" />
          </mxGeometry>
        </mxCell>
        <mxCell id="msg-fetch-content" value="" style="endArrow=block;startArrow=none;endFill=1;startFill=0;endSize=8;html=1;verticalAlign=bottom;labelBackgroundColor=none;strokeWidth=1;rounded=0;" parent="1" edge="1">
          <mxGeometry width="160" relative="1" as="geometry">
            <mxPoint x="535" y="360" as="sourcePoint" />
            <mxPoint x="725" y="360" as="targetPoint" />
          </mxGeometry>
        </mxCell>
        <mxCell id="msg-fetch-content-label" value="Fetch Questions &amp; Content" style="edgeLabel;html=1;align=center;verticalAlign=middle;resizable=0;points=[];" parent="msg-fetch-content" vertex="1" connectable="0">
          <mxGeometry x="-0.2381" y="3" relative="1" as="geometry">
            <mxPoint x="23" as="offset" />
          </mxGeometry>
        </mxCell>
        <mxCell id="msg-return-content" value="" style="html=1;verticalAlign=bottom;endArrow=open;dashed=1;endSize=8;curved=0;rounded=0;" parent="1" edge="1">
          <mxGeometry relative="1" as="geometry">
            <mxPoint x="725" y="400" as="sourcePoint" />
            <mxPoint x="535" y="400" as="targetPoint" />
          </mxGeometry>
        </mxCell>
        <mxCell id="msg-return-content-label" value="Return Questions &amp; Content" style="edgeLabel;html=1;align=center;verticalAlign=middle;resizable=0;points=[];" parent="msg-return-content" vertex="1" connectable="0">
          <mxGeometry x="0.1895" y="-1" relative="1" as="geometry">
            <mxPoint x="13" y="1" as="offset" />
          </mxGeometry>
        </mxCell>
        <mxCell id="process-content" value="Process Content" style="html=1;align=left;spacingLeft=2;endArrow=block;rounded=0;edgeStyle=orthogonalEdgeStyle;curved=0;rounded=0;" parent="1" edge="1">
          <mxGeometry x="-0.0476" y="10" relative="1" as="geometry">
            <mxPoint x="535" y="420" as="sourcePoint" />
            <Array as="points">
              <mxPoint x="565" y="420" />
              <mxPoint x="565" y="450" />
            </Array>
            <mxPoint x="535" y="450" as="targetPoint" />
            <mxPoint as="offset" />
          </mxGeometry>
        </mxCell>
        <mxCell id="msg-send-questions" value="" style="html=1;verticalAlign=bottom;endArrow=open;dashed=1;endSize=8;curved=0;rounded=0;" parent="1" edge="1">
          <mxGeometry relative="1" as="geometry">
            <mxPoint x="525" y="470" as="sourcePoint" />
            <mxPoint x="335" y="470" as="targetPoint" />
          </mxGeometry>
        </mxCell>
        <mxCell id="msg-send-questions-label" value="Send Questions" style="edgeLabel;html=1;align=center;verticalAlign=middle;resizable=0;points=[];" parent="msg-send-questions" vertex="1" connectable="0">
          <mxGeometry x="0.1895" y="-1" relative="1" as="geometry">
            <mxPoint x="13" y="1" as="offset" />
          </mxGeometry>
        </mxCell>
        <mxCell id="msg-present-quiz" value="" style="html=1;verticalAlign=bottom;endArrow=open;dashed=1;endSize=8;curved=0;rounded=0;" parent="1" edge="1">
          <mxGeometry relative="1" as="geometry">
            <mxPoint x="325" y="490" as="sourcePoint" />
            <mxPoint x="140" y="490" as="targetPoint" />
          </mxGeometry>
        </mxCell>
        <mxCell id="msg-present-quiz-label" value="Present Quiz" style="edgeLabel;html=1;align=center;verticalAlign=middle;resizable=0;points=[];" parent="msg-present-quiz" vertex="1" connectable="0">
          <mxGeometry x="0.1895" y="-1" relative="1" as="geometry">
            <mxPoint x="13" y="1" as="offset" />
          </mxGeometry>
        </mxCell>
        <mxCell id="alt-hint-frame" value="alt" style="shape=umlFrame;whiteSpace=wrap;html=1;pointerEvents=0;recursiveResize=0;container=1;collapsible=0;width=50;height=20;" parent="1" vertex="1">
          <mxGeometry x="90" y="500" width="560" height="80" as="geometry" />
        </mxCell>
        <mxCell id="alt-hint-guard" value="[Need Hint]" style="text;html=1;align=center;verticalAlign=middle;resizable=0;points=[];autosize=1;strokeColor=none;fillColor=none;" parent="alt-hint-frame" vertex="1">
          <mxGeometry x="60" width="80" height="30" as="geometry" />
        </mxCell>
        <mxCell id="msg-request-hint" value="" style="endArrow=block;startArrow=none;endFill=1;startFill=0;endSize=8;html=1;verticalAlign=bottom;labelBackgroundColor=none;strokeWidth=1;rounded=0;" parent="1" edge="1">
          <mxGeometry width="160" relative="1" as="geometry">
            <mxPoint x="140" y="530" as="sourcePoint" />
            <mxPoint x="325" y="530" as="targetPoint" />
          </mxGeometry>
        </mxCell>
        <mxCell id="msg-request-hint-label" value="Request Hint" style="edgeLabel;html=1;align=center;verticalAlign=middle;resizable=0;points=[];" parent="msg-request-hint" vertex="1" connectable="0">
          <mxGeometry x="-0.2381" y="3" relative="1" as="geometry">
            <mxPoint x="23" as="offset" />
          </mxGeometry>
        </mxCell>
        <mxCell id="msg-get-hint" value="" style="endArrow=block;startArrow=none;endFill=1;startFill=0;endSize=8;html=1;verticalAlign=bottom;labelBackgroundColor=none;strokeWidth=1;rounded=0;" parent="1" edge="1">
          <mxGeometry width="160" relative="1" as="geometry">
            <mxPoint x="335" y="530" as="sourcePoint" />
            <mxPoint x="525" y="530" as="targetPoint" />
          </mxGeometry>
        </mxCell>
        <mxCell id="msg-get-hint-label" value="Get Hint" style="edgeLabel;html=1;align=center;verticalAlign=middle;resizable=0;points=[];" parent="msg-get-hint" vertex="1" connectable="0">
          <mxGeometry x="-0.2381" y="3" relative="1" as="geometry">
            <mxPoint x="23" as="offset" />
          </mxGeometry>
        </mxCell>
        <mxCell id="msg-return-hint" value="" style="html=1;verticalAlign=bottom;endArrow=open;dashed=1;endSize=8;curved=0;rounded=0;" parent="1" edge="1">
          <mxGeometry relative="1" as="geometry">
            <mxPoint x="525" y="560" as="sourcePoint" />
            <mxPoint x="140" y="560" as="targetPoint" />
          </mxGeometry>
        </mxCell>
        <mxCell id="msg-return-hint-label" value="Display Hint" style="edgeLabel;html=1;align=center;verticalAlign=middle;resizable=0;points=[];" parent="msg-return-hint" vertex="1" connectable="0">
          <mxGeometry x="0.1895" y="-1" relative="1" as="geometry">
            <mxPoint x="13" y="1" as="offset" />
          </mxGeometry>
        </mxCell>
        <mxCell id="msg-submit-answers" value="" style="endArrow=block;startArrow=none;endFill=1;startFill=0;endSize=8;html=1;verticalAlign=bottom;labelBackgroundColor=none;strokeWidth=1;rounded=0;" parent="1" edge="1">
          <mxGeometry width="160" relative="1" as="geometry">
            <mxPoint x="140" y="600" as="sourcePoint" />
            <mxPoint x="325" y="600" as="targetPoint" />
          </mxGeometry>
        </mxCell>
        <mxCell id="msg-submit-answers-label" value="Submit Answers" style="edgeLabel;html=1;align=center;verticalAlign=middle;resizable=0;points=[];" parent="msg-submit-answers" vertex="1" connectable="0">
          <mxGeometry x="-0.2381" y="3" relative="1" as="geometry">
            <mxPoint x="23" as="offset" />
          </mxGeometry>
        </mxCell>
        <mxCell id="msg-validate-answers" value="" style="endArrow=block;startArrow=none;endFill=1;startFill=0;endSize=8;html=1;verticalAlign=bottom;labelBackgroundColor=none;strokeWidth=1;rounded=0;" parent="1" edge="1">
          <mxGeometry width="160" relative="1" as="geometry">
            <mxPoint x="335" y="610" as="sourcePoint" />
            <mxPoint x="525" y="610" as="targetPoint" />
          </mxGeometry>
        </mxCell>
        <mxCell id="msg-validate-answers-label" value="Validate Answers" style="edgeLabel;html=1;align=center;verticalAlign=middle;resizable=0;points=[];" parent="msg-validate-answers" vertex="1" connectable="0">
          <mxGeometry x="-0.2381" y="3" relative="1" as="geometry">
            <mxPoint x="23" as="offset" />
          </mxGeometry>
        </mxCell>
        <mxCell id="process-validation" value="Process Validation" style="html=1;align=left;spacingLeft=2;endArrow=block;rounded=0;edgeStyle=orthogonalEdgeStyle;curved=0;rounded=0;" parent="1" edge="1">
          <mxGeometry x="-0.0476" y="10" relative="1" as="geometry">
            <mxPoint x="535" y="630" as="sourcePoint" />
            <Array as="points">
              <mxPoint x="565" y="630" />
              <mxPoint x="565" y="660" />
            </Array>
            <mxPoint x="535" y="660" as="targetPoint" />
            <mxPoint as="offset" />
          </mxGeometry>
        </mxCell>
        <mxCell id="msg-save-answers" value="" style="endArrow=block;startArrow=none;endFill=1;startFill=0;endSize=8;html=1;verticalAlign=bottom;labelBackgroundColor=none;strokeWidth=1;rounded=0;" parent="1" edge="1">
          <mxGeometry width="160" relative="1" as="geometry">
            <mxPoint x="535" y="600" as="sourcePoint" />
            <mxPoint x="725" y="600" as="targetPoint" />
          </mxGeometry>
        </mxCell>
        <mxCell id="msg-save-answers-label" value="Save User Answers" style="edgeLabel;html=1;align=center;verticalAlign=middle;resizable=0;points=[];" parent="msg-save-answers" vertex="1" connectable="0">
          <mxGeometry x="-0.2381" y="3" relative="1" as="geometry">
            <mxPoint x="23" as="offset" />
          </mxGeometry>
        </mxCell>
        <mxCell id="msg-answers-saved" value="" style="html=1;verticalAlign=bottom;endArrow=open;dashed=1;endSize=8;curved=0;rounded=0;" parent="1" edge="1">
          <mxGeometry relative="1" as="geometry">
            <mxPoint x="725" y="640" as="sourcePoint" />
            <mxPoint x="535" y="640" as="targetPoint" />
          </mxGeometry>
        </mxCell>
        <mxCell id="msg-answers-saved-label" value="Answers Saved" style="edgeLabel;html=1;align=center;verticalAlign=middle;resizable=0;points=[];" parent="msg-answers-saved" vertex="1" connectable="0">
          <mxGeometry x="0.1895" y="-1" relative="1" as="geometry">
            <mxPoint x="13" y="1" as="offset" />
          </mxGeometry>
        </mxCell>
        <mxCell id="msg-update-progress" value="" style="endArrow=block;startArrow=none;endFill=1;startFill=0;endSize=8;html=1;verticalAlign=bottom;labelBackgroundColor=none;strokeWidth=1;rounded=0;" parent="1" edge="1">
          <mxGeometry width="160" relative="1" as="geometry">
            <mxPoint x="535" y="710" as="sourcePoint" />
            <mxPoint x="925" y="710" as="targetPoint" />
          </mxGeometry>
        </mxCell>
        <mxCell id="msg-update-progress-label" value="Update Learning Progress" style="edgeLabel;html=1;align=center;verticalAlign=middle;resizable=0;points=[];" parent="msg-update-progress" vertex="1" connectable="0">
          <mxGeometry x="-0.2381" y="3" relative="1" as="geometry">
            <mxPoint x="86" as="offset" />
          </mxGeometry>
        </mxCell>
        <mxCell id="process-progress" value="Calculate Progress" style="html=1;align=left;spacingLeft=2;endArrow=block;rounded=0;edgeStyle=orthogonalEdgeStyle;curved=0;rounded=0;" parent="1" edge="1">
          <mxGeometry x="-0.0476" y="10" relative="1" as="geometry">
            <mxPoint x="935" y="730" as="sourcePoint" />
            <Array as="points">
              <mxPoint x="965" y="730" />
              <mxPoint x="965" y="760" />
            </Array>
            <mxPoint x="935" y="760" as="targetPoint" />
            <mxPoint as="offset" />
          </mxGeometry>
        </mxCell>
        <mxCell id="msg-calculate-points" value="" style="endArrow=block;startArrow=none;endFill=1;startFill=0;endSize=8;html=1;verticalAlign=bottom;labelBackgroundColor=none;strokeWidth=1;rounded=0;" parent="1" edge="1">
          <mxGeometry width="160" relative="1" as="geometry">
            <mxPoint x="925" y="780" as="sourcePoint" />
            <mxPoint x="735" y="780" as="targetPoint" />
          </mxGeometry>
        </mxCell>
        <mxCell id="msg-calculate-points-label" value="Save Updated Stats" style="edgeLabel;html=1;align=center;verticalAlign=middle;resizable=0;points=[];" parent="msg-calculate-points" vertex="1" connectable="0">
          <mxGeometry x="-0.2381" y="3" relative="1" as="geometry">
            <mxPoint x="-23" as="offset" />
          </mxGeometry>
        </mxCell>
        <mxCell id="msg-points-saved" value="" style="html=1;verticalAlign=bottom;endArrow=open;dashed=1;endSize=8;curved=0;rounded=0;" parent="1" edge="1">
          <mxGeometry relative="1" as="geometry">
            <mxPoint x="735" y="840" as="sourcePoint" />
            <mxPoint x="925" y="840" as="targetPoint" />
          </mxGeometry>
        </mxCell>
        <mxCell id="msg-points-saved-label" value="Stats Saved" style="edgeLabel;html=1;align=center;verticalAlign=middle;resizable=0;points=[];" parent="msg-points-saved" vertex="1" connectable="0">
          <mxGeometry x="-0.1895" y="-1" relative="1" as="geometry">
            <mxPoint x="19" y="1" as="offset" />
          </mxGeometry>
        </mxCell>
        <mxCell id="msg-return-progress" value="" style="html=1;verticalAlign=bottom;endArrow=open;dashed=1;endSize=8;curved=0;rounded=0;" parent="1" edge="1">
          <mxGeometry relative="1" as="geometry">
            <mxPoint x="925" y="870" as="sourcePoint" />
            <mxPoint x="535" y="870" as="targetPoint" />
          </mxGeometry>
        </mxCell>
        <mxCell id="msg-return-progress-label" value="Progress Updated" style="edgeLabel;html=1;align=center;verticalAlign=middle;resizable=0;points=[];" parent="msg-return-progress" vertex="1" connectable="0">
          <mxGeometry x="0.1895" y="-1" relative="1" as="geometry">
            <mxPoint x="43" y="1" as="offset" />
          </mxGeometry>
        </mxCell>
        <mxCell id="alt-results-frame" value="alt" style="shape=umlFrame;whiteSpace=wrap;html=1;pointerEvents=0;recursiveResize=0;container=1;collapsible=0;width=50;height=20;" parent="1" vertex="1">
          <mxGeometry x="90" y="880" width="560" height="120" as="geometry" />
        </mxCell>
        <mxCell id="alt-results-guard" value="[Success]" style="text;html=1;align=center;verticalAlign=middle;resizable=0;points=[];autosize=1;strokeColor=none;fillColor=none;" parent="alt-results-frame" vertex="1">
          <mxGeometry x="50" width="70" height="30" as="geometry" />
        </mxCell>
        <mxCell id="alt-results-divider" value="" style="endArrow=none;dashed=1;html=1;rounded=0;exitX=0.002;exitY=0.535;exitDx=0;exitDy=0;exitPerimeter=0;entryX=1;entryY=0.538;entryDx=0;entryDy=0;entryPerimeter=0;" parent="alt-results-frame" edge="1">
          <mxGeometry width="50" height="50" relative="1" as="geometry">
            <mxPoint x="1.1200000000000045" y="64.20000000000005" as="sourcePoint" />
            <mxPoint x="560" y="64.5600000000001" as="targetPoint" />
          </mxGeometry>
        </mxCell>
        <mxCell id="alt-failure-guard" value="[Failure]" style="text;html=1;align=center;verticalAlign=middle;resizable=0;points=[];autosize=1;strokeColor=none;fillColor=none;" parent="alt-results-frame" vertex="1">
          <mxGeometry x="54" y="64" width="70" height="30" as="geometry" />
        </mxCell>
        <mxCell id="msg-success-feedback" value="" style="html=1;verticalAlign=bottom;endArrow=open;dashed=1;endSize=8;curved=0;rounded=0;" parent="1" edge="1">
          <mxGeometry relative="1" as="geometry">
            <mxPoint x="525" y="910" as="sourcePoint" />
            <mxPoint x="140" y="910" as="targetPoint" />
          </mxGeometry>
        </mxCell>
        <mxCell id="msg-success-feedback-label" value="Show Success + Cauris Points Earned" style="edgeLabel;html=1;align=center;verticalAlign=middle;resizable=0;points=[];" parent="msg-success-feedback" vertex="1" connectable="0">
          <mxGeometry x="0.1895" y="-1" relative="1" as="geometry">
            <mxPoint x="13" y="1" as="offset" />
          </mxGeometry>
        </mxCell>
        <mxCell id="msg-failure-feedback" value="" style="html=1;verticalAlign=bottom;endArrow=open;dashed=1;endSize=8;curved=0;rounded=0;" parent="1" edge="1">
          <mxGeometry relative="1" as="geometry">
            <mxPoint x="525" y="970" as="sourcePoint" />
            <mxPoint x="140" y="970" as="targetPoint" />
          </mxGeometry>
        </mxCell>
        <mxCell id="msg-failure-feedback-label" value="Show Failure + Correct Answers" style="edgeLabel;html=1;align=center;verticalAlign=middle;resizable=0;points=[];" parent="msg-failure-feedback" vertex="1" connectable="0">
          <mxGeometry x="0.1895" y="-1" relative="1" as="geometry">
            <mxPoint x="13" y="1" as="offset" />
          </mxGeometry>
        </mxCell>
        <mxCell id="msg-suggest-next" value="" style="html=1;verticalAlign=bottom;endArrow=open;dashed=1;endSize=8;curved=0;rounded=0;" parent="1" edge="1">
          <mxGeometry relative="1" as="geometry">
            <mxPoint x="525" y="1010" as="sourcePoint" />
            <mxPoint x="140" y="1010" as="targetPoint" />
          </mxGeometry>
        </mxCell>
        <mxCell id="msg-suggest-next-label" value="Suggest Next Content" style="edgeLabel;html=1;align=center;verticalAlign=middle;resizable=0;points=[];" parent="msg-suggest-next" vertex="1" connectable="0">
          <mxGeometry x="0.1895" y="-1" relative="1" as="geometry">
            <mxPoint x="13" y="1" as="offset" />
          </mxGeometry>
        </mxCell>
        <mxCell id="terminate-user" value="" style="shape=umlDestroy;html=1;" parent="1" vertex="1">
          <mxGeometry x="120" y="1090" width="30" height="30" as="geometry" />
        </mxCell>
        <mxCell id="terminate-app" value="" style="shape=umlDestroy;html=1;" parent="1" vertex="1">
          <mxGeometry x="315" y="1090" width="30" height="30" as="geometry" />
        </mxCell>
        <mxCell id="terminate-service" value="" style="shape=umlDestroy;html=1;" parent="1" vertex="1">
          <mxGeometry x="515" y="1090" width="30" height="30" as="geometry" />
        </mxCell>
        <mxCell id="terminate-database" value="" style="shape=umlDestroy;html=1;" parent="1" vertex="1">
          <mxGeometry x="715" y="1090" width="30" height="30" as="geometry" />
        </mxCell>
        <mxCell id="terminate-tracker" value="" style="shape=umlDestroy;html=1;" parent="1" vertex="1">
          <mxGeometry x="915" y="1090" width="30" height="30" as="geometry" />
        </mxCell>
        <mxCell id="actor-user-label" value="Learner" style="text;html=1;align=center;verticalAlign=middle;resizable=0;points=[];autosize=1;strokeColor=none;fillColor=none;" parent="1" vertex="1">
          <mxGeometry x="105" y="10" width="60" height="30" as="geometry" />
        </mxCell>
      </root>
    </mxGraphModel>
  </diagram>
</mxfile>
